<svg id="Layer_1" data-name="Layer 1" xmlns="http://www.w3.org/2000/svg" viewBox="0 0 58 58"><title>4</title><path d="M29,2A27,27,0,1,1,2,29,27,27,0,0,1,29,2m0-2A29,29,0,1,0,58,29,29,29,0,0,0,29,0h0Z" style="fill:#2a4486"/><path d="M20,35.71l-7.22-4.55a1.92,1.92,0,0,1-1-1.72V29.24a1.92,1.92,0,0,1,1-1.72L20,23a1.09,1.09,0,0,1,.62-0.21,1.17,1.17,0,0,1,1,1.31,1.43,1.43,0,0,1-.68,1.28l-6.58,4,6.58,4a1.47,1.47,0,0,1,.68,1.31,1.17,1.17,0,0,1-1.06,1.31A1.1,1.1,0,0,1,20,35.71Z" style="fill:#2a4486"/><path d="M23.91,40l8.18-21.53A1,1,0,0,1,33,17.76a1.09,1.09,0,0,1,.94,1.18,2.51,2.51,0,0,1-.1.62l-8.2,21.52a0.93,0.93,0,0,1-.86.72,1.1,1.1,0,0,1-1-1.18A1.77,1.77,0,0,1,23.91,40Z" style="fill:#2a4486"/><path d="M38,23l7.2,4.55a1.9,1.9,0,0,1,1,1.72v0.21a1.9,1.9,0,0,1-1,1.72L38,35.71a1.08,1.08,0,0,1-.62.21,1.17,1.17,0,0,1-1-1.31,1.36,1.36,0,0,1,.68-1.26l6.58-4-6.58-4a1.47,1.47,0,0,1-.68-1.31,1.17,1.17,0,0,1,1.06-1.31A1.08,1.08,0,0,1,38,23Z" style="fill:#2a4486"/></svg>