<svg id="Layer_1" data-name="Layer 1" xmlns="http://www.w3.org/2000/svg" viewBox="0 0 58 58"><title>2</title><path d="M29,2A27,27,0,1,1,2,29,27,27,0,0,1,29,2m0-2A29,29,0,1,0,58,29,29,29,0,0,0,29,0h0Z" style="fill:#03b596"/><path d="M44.47,32.09V25.91H41a12.24,12.24,0,0,0-1.29-3.26l2.4-2.4-4.37-4.37L35.4,18.22a12.2,12.2,0,0,0-3.31-1.39v-3.3H25.91v3.3a12.24,12.24,0,0,0-3.31,1.39l-2.35-2.35-4.37,4.38,2.4,2.4A12.28,12.28,0,0,0,17,25.91H13.53v6.19h3.55a12.25,12.25,0,0,0,1.34,3.11l-2.55,2.55,4.37,4.38,2.6-2.6a12.23,12.23,0,0,0,3.06,1.24v3.7h6.19v-3.7a12.17,12.17,0,0,0,3.06-1.24l2.6,2.6,4.38-4.37L39.57,35.2a12.25,12.25,0,0,0,1.34-3.11h3.55ZM29,34.57A5.57,5.57,0,1,1,34.57,29,5.57,5.57,0,0,1,29,34.57Z" style="fill:#03b596"/></svg>