<svg id="Layer_1" data-name="Layer 1" xmlns="http://www.w3.org/2000/svg" viewBox="0 0 58 58"><title>3</title><path d="M29,2A27,27,0,1,1,2,29,27,27,0,0,1,29,2m0-2A29,29,0,1,0,58,29,29,29,0,0,0,29,0h0Z" style="fill:#15afe6"/><g id="_0UIQuH" data-name="0UIQuH"><path d="M40.48,17.93l0.52,0c1.31,0,1.38,0,1.38,1.31q0,11.67,0,23.33c0,1.22,0,1.26-1.25,1.26H18.83c-1.22,0-1.25,0-1.25-1.26q0-13.34,0-26.69c0-1.18,0-1.22,1.2-1.22h11v1c0,4,0,8,0,12a3.3,3.3,0,0,0,.23.85A3.36,3.36,0,0,0,30.67,28c0.63-.66,1.23-1.35,1.9-2.09l2.75,2.65,0.27-.13V14.63c0.72,0,1.29,0,1.86,0a0.86,0.86,0,0,1,1.07,1c0,1.61,0,3.21,0,4.82q0,9.13,0,18.25c0,1.15-.09,1.24-1.22,1.24H19.48c0,0.37,0,.65,0,0.93a0.83,0.83,0,0,0,1,1c6.31,0,12.63,0,18.94,0,0.93,0,1-.15,1-1.25q0-10.85,0-21.7v-1Z" style="fill:#15afe6;fill-rule:evenodd"/></g></svg>