<svg xmlns="http://www.w3.org/2000/svg" viewBox="0 0 95 95"><title>privateclasses</title><g style="isolation:isolate"><g id="Layer_1" data-name="Layer 1"><circle cx="47.5" cy="47.5" r="47.5" style="fill:#fff"/><path d="M18.69,51.12a10.39,10.39,0,0,1,5.12-6,65.57,65.57,0,0,1,7.64-3.56c2.23-.89,2.54-1.66,1-3.45C28.49,33.61,28,26.93,31.31,22.53c2.41-3.19,5.76-3.95,9.48-3.38a8.65,8.65,0,0,1,6.9,5.72C38.1,27.48,36,39.45,40.86,46.94c1.62,2.49,2,2.9-1.29,4.26a28.74,28.74,0,0,0-9,5.78,2.37,2.37,0,0,1-1.4.54c-1.21.08-2.43-.06-3.63,0-3.4.3-5.68-1.09-6.85-4.3V51.12Z" style="fill:#29abe2;fill-rule:evenodd;mix-blend-mode:multiply"/><path d="M79.22,70.49a4.62,4.62,0,0,1-1.53.63c-4.08,0-8.16,0-12.24,0A1.27,1.27,0,0,1,64,69.59c0-2.06,0-4.12,0-6.19,0-2.24,0-2.24,2.29-2.41-0.05-2.17.17-4.37,2.22-5.64a6.87,6.87,0,0,1,3.38-1c3,0,4.34,1.74,5.11,6.43l2.22,0.83v8.88ZM74.72,61c0.29-1.84.08-3.38-1.53-4.34a3,3,0,0,0-3.5.23C68.27,58,68.34,59.45,68.56,61h6.16Zm-2.31,7.85c0.21-1.34.46-2.48,0.53-3.63a1.72,1.72,0,0,0-.56-1.36,1.79,1.79,0,0,0-1.55,0,1.67,1.67,0,0,0-.57,1.33c0.07,1.19.3,2.38,0.49,3.68h1.66Z" style="fill:#ef416f;fill-rule:evenodd"/><path d="M64.76,53.77c-0.6,1.4-1.11,2.63-1.66,3.84a2.18,2.18,0,0,1-.62.79,4.65,4.65,0,0,0-1.91,3.94c0,2.32,0,4.64,0,7.11H36.13a5.86,5.86,0,0,1-5.24-8.74,12.42,12.42,0,0,1,5.4-5.09c2.64-1.39,5.4-2.55,8.17-3.67,1.84-.75,2.22-1.81.93-3.31-3.43-4-4.73-8.48-3.32-13.6s5.11-7.68,10.47-7.62a9.88,9.88,0,0,1,9.69,7.78,14,14,0,0,1-3.15,13.15c-1.61,1.92-1.35,2.83,1,3.65C61.69,52.55,63.26,53.2,64.76,53.77Z" style="fill:#00a66d;fill-rule:evenodd;mix-blend-mode:multiply"/></g></g></svg>